# xmcd
# 
# Track frame offsets:
#     150
#     22180
#     46432
# 
# Disc length: 936
# 
# Revision: 1
# Processed by: cddbd v1.5.2PL0 Copyright (c) Steve Scherf et al.
# Submitted via: fre:ac v1.0.31
# 
DISCID=2203a603
DTITLE=Aki Tsuyuko - tsuki to nagai yoru
DYEAR=2000
DGENRE=Electronica
TTITLE0=tonoshi hi - a happy day
TTITLE1=tokikakera
TTITLE2=tsuki to nagai yoru - a full moon and a long night
EXTD=YEAR: 2000
EXTT0=
EXTT1=
EXTT2=
PLAYORDER=
